<?xml version="1.0" encoding="UTF-8"?> <svg xmlns="http://www.w3.org/2000/svg" viewBox="0 0 519.00 394.69" data-guides="{&quot;vertical&quot;:[],&quot;horizontal&quot;:[]}"><defs></defs><path fill="#C9AE8C" stroke="none" fill-opacity="1" stroke-width="1" stroke-opacity="1" id="tSvg405610a8f3" title="Path 1" d="M395.4407 287.9076C395.4407 289.1688 395.4407 290.4299 395.4407 291.6911C357.5822 291.6911 319.7237 291.6911 281.8652 291.6911C281.8652 290.4299 281.8652 289.1688 281.8652 287.9076C293.812 284.6535 305.7589 281.3993 317.7057 278.1452C317.7057 275.8938 317.7057 273.6424 317.7057 271.391C331.2101 271.391 344.7144 271.391 358.2188 271.391C358.2188 273.6424 358.2188 275.8938 358.2188 278.1452C370.6261 281.3993 383.0334 284.6535 395.4407 287.9076Z"></path><path fill="#C9AE8C" stroke="none" fill-opacity="1" stroke-width="1" stroke-opacity="1" id="tSvg7fa2ad3484" title="Path 2" d="M358.2281 19.5459C395.1268 19.5459 432.0255 19.5459 468.9243 19.5459C484.688 44.5256 500.4517 69.5053 516.2154 94.485C516.9685 94.485 517.7217 94.485 518.4748 94.485C513.3335 65.1503 508.1922 35.8155 503.0509 6.4808C463.8586 6.4808 424.6663 6.4808 385.474 6.4808C374.6103 6.4808 363.7465 6.4808 352.8827 6.4808C325.8864 6.4808 298.8901 6.4808 271.8938 6.4808C271.4311 6.4808 270.9683 6.4808 270.5056 6.4808C263.8702 6.4808 257.2347 6.4808 250.5993 6.4808C250.5993 7.7335 250.5993 8.9863 250.5993 10.2391C265.9062 14.358 281.2131 18.4768 296.5199 22.5957C262.3288 87.4959 228.1377 152.3961 193.9466 217.2963C194.0128 215.9578 194.0665 214.6112 194.0665 213.2437C194.0665 168.1147 156.8312 144.4209 113.2063 128.625C104.3056 125.3652 95.4049 122.1055 86.5042 118.8457C52.277 106.4354 35.7311 86.127 35.7311 55.6626C35.7311 22.5666 62.6116 6.3979 91.1908 6.3979C131.8114 6.3979 151.9418 35.3542 178.6438 102.6728C179.3965 102.6728 180.1493 102.6728 180.902 102.6728C174.3825 68.8256 167.8631 34.9784 161.3437 1.1312C160.5924 1.1312 159.841 1.1312 159.0897 1.1312C154.5757 6.1451 150.0618 11.159 145.5478 16.1729C133.8917 6.3937 111.7022 0 92.5209 0C53.7811 0 4.1395 23.3208 4.1395 74.8438C4.1395 112.0751 27.8333 142.5395 74.4666 159.4666C83.3687 162.7249 92.2708 165.9832 101.173 169.2415C138.027 182.7834 161.3437 199.3293 161.3437 235.4333C161.3437 269.2833 133.2658 290.296 93.4035 290.296C52.7826 290.296 28.9604 261.0082 2.2583 190.3042C1.5055 190.3042 0.7528 190.3042 0 190.3042C6.5194 225.7813 13.0389 261.2583 19.5583 296.7353C20.3111 296.7353 21.0639 296.7353 21.8166 296.7353C26.3291 291.7214 30.8417 286.7075 35.3542 281.6936C47.7645 290.7186 71.0812 297.8665 93.6478 297.8665C106.5557 297.8665 119.4881 295.683 131.5712 291.5559C141.1542 291.5559 150.7373 291.5559 160.3203 291.5559C161.359 291.5559 162.3976 291.5559 163.4362 291.5559C164.3713 291.5559 165.3065 291.5559 166.2416 291.5559C182.7129 291.5559 199.1841 291.5559 215.6554 291.5559C215.6554 290.303 215.6554 289.0502 215.6554 287.7973C202.7643 284.2849 189.8732 280.7725 176.9821 277.2601C199.3623 235.4541 221.7425 193.6482 244.1227 151.8423C268.6493 151.8423 293.176 151.8423 317.7026 151.8423C317.7026 198.4783 317.7026 245.1144 317.7026 291.7504C331.2111 291.7311 344.7196 291.7119 358.2281 291.6926C358.2281 245.0758 358.2281 198.4591 358.2281 151.8423C375.4193 151.8423 392.6106 151.8423 409.8018 151.8423C410.0038 152.2525 410.2027 152.6628 410.414 153.1557C417.5588 168.5759 424.7036 183.9961 431.8484 199.4163C432.9092 199.4163 433.97 199.4163 435.0308 199.4163C435.0308 163.5621 435.0308 127.7079 435.0308 91.8537C433.97 91.8537 432.9092 91.8537 431.8484 91.8537C424.7036 107.2724 417.5588 122.6912 410.414 138.1099C410.1934 138.6237 409.9882 139.0507 409.78 139.4733C392.596 139.4733 375.4121 139.4733 358.2281 139.4733C358.2281 99.4975 358.2281 59.5217 358.2281 19.5459ZM250.2553 139.4733C269.7017 102.4644 289.1482 65.4555 308.5946 28.4466C311.6306 28.4466 314.6666 28.4466 317.7026 28.4466C317.7026 65.4555 317.7026 102.4644 317.7026 139.4733C295.2201 139.4733 272.7377 139.4733 250.2553 139.4733Z"></path></svg> 