<?xml version="1.0" encoding="UTF-8"?> <svg xmlns="http://www.w3.org/2000/svg" width="32" height="32" viewBox="0 0 32 32" fill="none"><g clip-path="url(#clip0_137_20)"><path d="M22 16C22.0051 19.91 21.2437 23.783 19.7588 27.4" stroke="#C49A73" stroke-width="1.5" stroke-linecap="round" stroke-linejoin="round"></path><path d="M20.4713 12C19.6611 11.0946 18.5951 10.4565 17.4144 10.1701C16.2337 9.88367 14.9939 9.96245 13.8589 10.396C12.7239 10.8296 11.7473 11.5975 11.0583 12.5981C10.3692 13.5988 10.0002 14.785 10 16C10.0042 19.0496 9.22974 22.0497 7.75 24.7162" stroke="#C49A73" stroke-width="1.5" stroke-linecap="round" stroke-linejoin="round"></path><path d="M12 4.68243C13.8103 4.0445 15.7471 3.84978 17.6481 4.11461C19.5492 4.37944 21.3591 5.09609 22.9261 6.2045C24.4931 7.31291 25.7716 8.78079 26.6544 10.4851C27.5372 12.1894 27.9986 14.0805 28 15.9999C28.0015 18.6915 27.7022 21.3749 27.1075 23.9999" stroke="#C49A73" stroke-width="1.5" stroke-linecap="round" stroke-linejoin="round"></path><path d="M2.91125 20.9999C3.63076 19.4313 4.00218 17.7256 4 15.9999C3.99834 14.3114 4.35388 12.6415 5.04326 11.1001C5.73264 9.55872 6.74028 8.18056 8 7.05615" stroke="#C49A73" stroke-width="1.5" stroke-linecap="round" stroke-linejoin="round"></path><path d="M13.8212 26C13.5712 26.5525 13.2979 27.0942 13.0012 27.625" stroke="#C49A73" stroke-width="1.5" stroke-linecap="round" stroke-linejoin="round"></path><path d="M16 16C16.0036 18.0236 15.7516 20.0395 15.25 22" stroke="#C49A73" stroke-width="1.5" stroke-linecap="round" stroke-linejoin="round"></path></g><defs><clipPath id="clip0_137_20"><rect width="32" height="32" fill="white"></rect></clipPath></defs></svg> 