<?xml version="1.0" encoding="UTF-8"?> <svg xmlns="http://www.w3.org/2000/svg" width="32" height="32" viewBox="0 0 32 32" fill="none"><g clip-path="url(#clip0_106_1183)"><path d="M3 28H29" stroke="#C49A73" stroke-width="1.5" stroke-linecap="round" stroke-linejoin="round"></path><path d="M7 28V5C7 4.73478 7.10536 4.48043 7.29289 4.29289C7.48043 4.10536 7.73478 4 8 4H24C24.2652 4 24.5196 4.10536 24.7071 4.29289C24.8946 4.48043 25 4.73478 25 5V28" stroke="#C49A73" stroke-width="1.5" stroke-linecap="round" stroke-linejoin="round"></path><path d="M19.5 17.75C20.1904 17.75 20.75 17.1904 20.75 16.5C20.75 15.8096 20.1904 15.25 19.5 15.25C18.8096 15.25 18.25 15.8096 18.25 16.5C18.25 17.1904 18.8096 17.75 19.5 17.75Z" fill="#C49A73"></path></g><defs><clipPath id="clip0_106_1183"><rect width="32" height="32" fill="white"></rect></clipPath></defs></svg> 